<?xml version="1.0" encoding="utf-8"?>
<!DOCTYPE svg PUBLIC "-//W3C//DTD SVG 20010904//EN" "http://www.w3.org/TR/2001/REC-SVG-20010904/DTD/svg10.dtd">
<svg version="1.0" xmlns="http://www.w3.org/2000/svg" width="512px" height="512px" viewBox="0 0 512 512" preserveAspectRatio="xMidYMid meet">
 <g fill="#4c6ef5">
  <path d="M235.5 467.9 c-33.6 -3.4 -69.1 -16.1 -96.5 -34.4 -55.8 -37.3 -89.9 -95.5 -95.2 -162.6 -2.9 -37 5 -76.6 22.2 -110.4 33.6 -66.5 98.2 -109.9 173 -116.6 15.7 -1.4 42.4 -0.7 55 1.5 34.5 5.8 68.2 21.7 92 43.5 l6.5 5.9 -6 -1.4 c-21.9 -5.1 -55.2 -5.7 -75.9 -1.5 -36.8 7.5 -69.2 25.2 -94.2 51.3 -21.3 22.2 -36 49.5 -42.5 78.7 -7.6 34.6 -3.4 70.3 12.2 103.1 17 35.8 44.9 63.2 82.2 81 22.7 10.8 42.9 15.7 68.8 16.7 17.8 0.6 32.4 -0.5 46.9 -3.6 9.6 -2.1 10.2 -3.1 -5.5 8.9 -28.4 21.6 -55.8 33.5 -88.5 38.5 -12.9 1.9 -42.4 2.7 -54.5 1.4z"/>
  <path d="M291.3 338.5 c0.4 -1.1 4.7 -17.7 9.6 -37 8.5 -33 8.9 -35.1 7.3 -36.6 -0.9 -0.9 -14.4 -12.5 -30 -25.9 -15.6 -13.4 -27.9 -24.6 -27.5 -25 0.4 -0.4 17.4 -2 37.6 -3.5 20.3 -1.6 37.4 -3.4 38.1 -4 0.7 -0.5 8.2 -17.1 16.6 -36.8 8.4 -19.7 15.4 -35.6 15.5 -35.5 0.2 0.2 7.2 16.3 15.5 35.8 8.4 19.5 15.7 36 16.4 36.6 0.6 0.6 16.6 2.3 37.6 3.9 20.1 1.5 37.1 3.1 37.7 3.4 0.8 0.4 -10.9 10.8 -29.7 26.5 -17.1 14.1 -31 26.1 -31 26.4 0 0.4 4.7 17 10.4 36.9 5.6 19.9 9.8 35.9 9.2 35.6 -0.6 -0.4 -15.5 -9.7 -33.1 -20.6 -17.6 -11 -32.5 -20 -33.1 -20 -0.8 0 -50.8 30.7 -65.3 40.2 -2.2 1.4 -2.3 1.4 -1.8 -0.4z"/>
 </g>
</svg>